<svg xmlns="http://www.w3.org/2000/svg" viewBox="0 0 24 24" id="NoCamera"><path d="m21.208 4.207 2.5-2.5A1 1 0 0 0 22.293.293L18.586 4h-.865l-.321-.949A3 3 0 0 0 14.559 1H9.441A2.994 2.994 0 0 0 6.6 3.052L6.279 4H4a4 4 0 0 0-4 4v11a3.963 3.963 0 0 0 .986 2.6l-.693.693a1 1 0 1 0 1.414 1.414l.954-.954A3.971 3.971 0 0 0 4 23h16a4 4 0 0 0 4-4V8a3.991 3.991 0 0 0-2.792-3.793ZM2 19V8a2 2 0 0 1 2-2h3a1 1 0 0 0 .948-.684l.544-1.632A1 1 0 0 1 9.441 3h5.118a1 1 0 0 1 .949.684l.544 1.632a.992.992 0 0 0 .6.616L14.86 7.726a6 6 0 0 0-8.134 8.134L2.4 20.187A1.985 1.985 0 0 1 2 19Zm14-6a4 4 0 0 1-4 4 3.963 3.963 0 0 1-2.6-.986l5.614-5.614A3.963 3.963 0 0 1 16 13Zm-8 0a3.962 3.962 0 0 1 5.339-3.753l-5.092 5.092A3.971 3.971 0 0 1 8 13Zm14 6a2 2 0 0 1-2 2H4.414l3.562-3.562a5.99 5.99 0 0 0 8.462-8.462L19.414 6H20a2 2 0 0 1 2 2Z" data-name="5. No Camera" fill="#ffffff" class="color000000 svgShape"></path></svg>